<svg xmlns="http://www.w3.org/2000/svg" width="1200" height="675" viewBox="0 0 1200 675">
      <defs>
        <linearGradient id="bg" x1="0" x2="1" y1="0" y2="1">
          <stop offset="0%" stop-color="#f8fafc"/>
          <stop offset="100%" stop-color="#e2e8f0"/>
        </linearGradient>
      </defs>
      <rect width="1200" height="675" rx="36" fill="url(#bg)"/>
      <circle cx="1040" cy="120" r="82" fill="white" opacity="0.75"/>
      <text x="1040" y="145" text-anchor="middle" font-family="Arial" font-size="72">🤖</text>
      <text x="70" y="110" font-family="Arial" font-size="46" font-weight="800" fill="#0f172a">Нейрондық желілердің қолданылуы</text>
      <text x="70" y="165" font-family="Arial" font-size="25" fill="#475569">Бір технология әртүрлі салада деректерден шешім шығарады.</text>
      
        <rect x="90" y="340" width="170" height="95" rx="24" fill="white" stroke="#334155" stroke-width="3"/>
        <text x="175.0" y="378" text-anchor="middle" font-family="Arial" font-size="20" font-weight="700" fill="#0f172a">Медицина</text>
        <circle cx="175.0" cy="408" r="10" fill="#334155">
          <animate attributeName="opacity" values="0.25;1;0.25" dur="1.8s" repeatCount="indefinite" begin="0.0s"/>
        </circle>
        
            <path d="M 267 388 L 297 388" stroke="#334155" stroke-width="5" stroke-linecap="round"/>
            <path d="M 297 388 L 285 378 M 297 388 L 285 398" stroke="#334155" stroke-width="5" stroke-linecap="round"/>
            
        <rect x="305" y="340" width="170" height="95" rx="24" fill="white" stroke="#334155" stroke-width="3"/>
        <text x="390.0" y="378" text-anchor="middle" font-family="Arial" font-size="20" font-weight="700" fill="#0f172a">Камера</text>
        <circle cx="390.0" cy="408" r="10" fill="#334155">
          <animate attributeName="opacity" values="0.25;1;0.25" dur="1.8s" repeatCount="indefinite" begin="0.2s"/>
        </circle>
        
            <path d="M 482 388 L 512 388" stroke="#334155" stroke-width="5" stroke-linecap="round"/>
            <path d="M 512 388 L 500 378 M 512 388 L 500 398" stroke="#334155" stroke-width="5" stroke-linecap="round"/>
            
        <rect x="520" y="340" width="170" height="95" rx="24" fill="white" stroke="#334155" stroke-width="3"/>
        <text x="605.0" y="378" text-anchor="middle" font-family="Arial" font-size="20" font-weight="700" fill="#0f172a">Дыбыс</text>
        <circle cx="605.0" cy="408" r="10" fill="#334155">
          <animate attributeName="opacity" values="0.25;1;0.25" dur="1.8s" repeatCount="indefinite" begin="0.4s"/>
        </circle>
        
            <path d="M 697 388 L 727 388" stroke="#334155" stroke-width="5" stroke-linecap="round"/>
            <path d="M 727 388 L 715 378 M 727 388 L 715 398" stroke="#334155" stroke-width="5" stroke-linecap="round"/>
            
        <rect x="735" y="340" width="170" height="95" rx="24" fill="white" stroke="#334155" stroke-width="3"/>
        <text x="820.0" y="378" text-anchor="middle" font-family="Arial" font-size="20" font-weight="700" fill="#0f172a">Өндіріс</text>
        <circle cx="820.0" cy="408" r="10" fill="#334155">
          <animate attributeName="opacity" values="0.25;1;0.25" dur="1.8s" repeatCount="indefinite" begin="0.6000000000000001s"/>
        </circle>
        
            <path d="M 912 388 L 942 388" stroke="#334155" stroke-width="5" stroke-linecap="round"/>
            <path d="M 942 388 L 930 378 M 942 388 L 930 398" stroke="#334155" stroke-width="5" stroke-linecap="round"/>
            
        <rect x="950" y="340" width="170" height="95" rx="24" fill="white" stroke="#334155" stroke-width="3"/>
        <text x="1035.0" y="378" text-anchor="middle" font-family="Arial" font-size="20" font-weight="700" fill="#0f172a">Білім</text>
        <circle cx="1035.0" cy="408" r="10" fill="#334155">
          <animate attributeName="opacity" values="0.25;1;0.25" dur="1.8s" repeatCount="indefinite" begin="0.8s"/>
        </circle>
        
      <rect x="70" y="540" width="1060" height="65" rx="22" fill="white" opacity="0.85"/>
      <text x="600" y="582" text-anchor="middle" font-family="Arial" font-size="24" font-weight="700" fill="#0f172a">Кіріс дерек → өңдеу → шешім → түсіндіру</text>
    </svg>